<?xml version="1.0" encoding="UTF-8" standalone="no"?>
<svg
 xmlns:dc="http://purl.org/dc/elements/1.1/"
 xmlns:cc="http://creativecommons.org/ns#"
 xmlns:rdf="http://www.w3.org/1999/02/22-rdf-syntax-ns#"
 xmlns:svg="http://www.w3.org/2000/svg"
 xmlns="http://www.w3.org/2000/svg"
 xmlns:sodipodi="http://sodipodi.sourceforge.net/DTD/sodipodi-0.dtd"
 xmlns:inkscape="http://www.inkscape.org/namespaces/inkscape"
 version="1.1"
 width="300"
 height="300">
<g id="batang">
 <!-- yellow shield border -->
 <path style="fill:#fcc700" d="m 152.78547,298.13259 c 13.63831,-6.21877 26.52511,-13.5428 38.31419,-21.77794 11.39888,-7.95741 22.06949,-16.96102 31.6914,-26.78211 18.21143,-18.55325 33.39548,-40.63657 45.13241,-65.64171 20.66513,-44.02337 31.14787,-97.813159 31.14787,-159.883961 l 0,-5.079255 -4.90301,-1.369803 C 289.23014,16.216703 270.71459,11.385645 240.0606,7.0399823 209.93881,2.7665835 179.63418,0.59940491 150.00314,0.59940491 120.3633,0.59940491 90.05867,2.7665835 59.931235,7.0399823 29.277242,11.385645 10.77928,16.216703 5.8291479,17.597811 l -4.90049123,1.369803 0,5.079255 c 0,62.070802 10.47709133,115.860591 31.14536633,159.883961 11.73127,25.00514 26.920971,47.08846 45.129886,65.64171 9.636361,9.82109 20.295665,18.8247 31.688261,26.78211 11.79222,8.23514 24.68153,15.55917 38.32864,21.77794 l 2.78233,1.26801 2.78233,-1.26801 0,0 z" />
 <!-- blue shield -->
 <path style="fill:#003478" d="M 150.00314,292.03258 C 258.47813,242.55137 292.37126,134.97807 292.37126,24.046869 273.2085,18.707475 216.99769,7.3001207 150.00314,7.3001207 c -67.005853,0 -123.219816,11.4073543 -142.3649719,16.7467483 0,110.931201 33.8931299,218.504501 142.3649719,267.985711 l 0,0 z" />
 <!-- dark brown eagle outline -->
 <path style="fill:#a05d13" d="m 281.66545,48.240183 c 3.02236,-3.212751 3.84298,-6.599234 3.83167,-9.39633 0,-3.727365 -1.47348,-6.449373 -1.50803,-6.422979 -5.82857,6.691598 -33.49476,33.078163 -74.00126,36.626134 l 0,-3.767896 c 0,-0.225264 -0.10682,-0.294697 -0.3035,-0.294697 l -43.52949,0 c -0.31165,-2.051554 -0.57745,-4.001633 -0.80617,-5.746877 l -0.008,-0.0058 0,-0.01165 0,-0.0026 c 0,-0.03172 -0.0754,-0.494193 -0.0754,-0.494193 -0.60385,-4.360113 -1.12977,-8.15094 -1.9705,-10.401687 1.90954,-1.35503 3.51372,-3.256414 4.63155,-5.515957 1.06066,-2.097746 1.6268,-4.409439 1.61235,-6.483617 l 0,-0.448013 -0.37261,0.233745 c -0.55169,0.338367 -1.99941,0.901682 -2.01072,0.904507 -2.0547,0.768788 -5.75882,1.589411 -11.66215,1.164645 -3.16374,-0.228404 -5.99257,-0.28621 -8.43119,-0.187875 -2.52847,0.115618 -4.54799,0.401513 -6.03026,0.875604 -1.62994,0.502364 -2.91239,1.16433 -3.92969,2.025483 -0.87843,0.730768 -1.36415,1.464683 -1.68146,1.970502 -2.54293,-0.161803 -5.81349,0.144205 -8.18048,0.771298 -1.58909,0.41911 -2.76787,1.155849 -3.57404,2.239435 -0.81183,1.080755 -1.22214,2.47035 -1.24539,4.221558 l 0,0.01132 c 0,1.034576 0.22809,2.782645 0.86712,4.597314 0.82879,2.360394 2.12319,4.296337 3.85115,5.76416 l 0.3525,0.300346 0.0609,-0.459009 c 0.0257,-0.115612 0.44801,-2.837619 4.50463,-2.947266 0.38141,0 1.06317,0.0085 1.37231,0.01448 0.90734,0.03738 1.56899,0.260139 1.8838,0.638404 0.28652,0.364123 0.36695,0.991215 0.22872,1.866511 0,0.08105 -0.36445,2.169997 -1.0261,4.394981 l -0.0113,0.0058 0,0.0088 c -0.0145,0.04054 -0.0899,0.294697 -0.19919,0.696209 l -43.991949,0 c -0.193531,0 -0.303493,0.06943 -0.303493,0.294697 l 0,3.767895 C 49.499981,65.499641 21.836931,39.113077 16.002714,32.421478 c -0.03456,-0.02638 -1.502381,2.695614 -1.502381,6.42298 0,2.797096 0.806172,6.183579 3.842977,9.39633 0,0 0.0088,0.01165 0.03455,0.05501 -1.215849,2.999107 -2.865897,11.107002 5.20713,17.908563 -0.150176,0.763132 -0.280245,1.935943 -0.280245,3.155254 0,4.050965 1.473478,10.058296 8.948316,15.077229 0,0 0.520271,0.352188 0.858322,0.566141 -0.121273,1.58344 0.07791,13.308739 16.879964,17.455212 1.652557,4.82824 6.267147,10.95086 17.576167,11.70771 3.181332,5.18105 7.758223,7.81886 13.999608,7.75822 1.48793,2.31453 4.394672,4.18103 7.850594,5.02177 2.288446,0.53472 4.617106,0.59253 6.887954,0.15017 0.722603,0.56363 2.051561,1.34372 3.782658,2.01983 0,0 0.009,0.006 0.0402,0.0116 -2.016998,1.46185 -3.002248,3.26522 -3.684007,5.35982 -1.100868,3.37486 -1.100868,6.56467 2.438616,11.18806 1.193241,1.65256 1.866821,3.05095 2.230641,4.68371 0.3613,1.59192 0.43356,3.41539 0.43356,6.03624 0,1.64941 0.33805,3.19515 0.9997,4.59385 0.66165,1.37797 1.63559,2.58063 2.84014,3.45026 0.6937,0.51085 1.48542,0.90985 2.32929,1.19324 -0.52027,0.72197 -0.91362,1.51369 -1.18192,2.33997 -0.45367,1.40436 -0.55484,2.94759 -0.2658,4.44997 0.27459,1.52249 0.91551,2.96706 1.89259,4.30544 1.53443,2.11502 2.55424,3.63751 3.19012,5.13173 0.66103,1.54259 0.95007,3.06508 0.9419,5.10533 -0.13007,5.82479 1.74493,8.40793 4.597,10.48274 2.87218,2.08046 5.90271,3.07137 11.41332,1.14108 1.93532,-0.63275 3.46409,-0.83759 5.12544,-0.68176 1.62995,0.15332 3.38681,0.65034 5.87758,1.45652 1.56584,0.51713 3.14614,0.6673 4.67491,0.47377 1.52815,-0.21113 2.96141,-0.77161 4.16659,-1.63245 0.70186,-0.50896 1.3233,-1.13543 1.85488,-1.85803 0.53473,0.7226 1.15616,1.34907 1.85803,1.85803 1.19323,0.86084 2.63781,1.42132 4.15464,1.63245 1.52878,0.19353 3.1009,0.0434 4.66989,-0.47377 2.49894,-0.80618 4.2558,-1.3032 5.87694,-1.45652 1.66701,-0.15583 3.20395,0.049 5.13173,0.68176 5.50999,1.93029 8.54114,0.93938 11.41333,-1.14108 2.86275,-2.07481 4.73838,-4.65795 4.59951,-10.48274 0,-2.04025 0.27773,-3.56274 0.93938,-5.10533 0.6472,-1.49422 1.65821,-3.01671 3.20143,-5.13173 0.96515,-1.33838 1.5979,-2.78295 1.88945,-4.30544 0.28024,-1.50238 0.17908,-3.04561 -0.27145,-4.44997 -0.26013,-0.82628 -0.65285,-1.618 -1.18506,-2.33997 0.85581,-0.28339 1.63559,-0.68239 2.33808,-1.19952 1.19575,-0.86335 2.181,-2.06601 2.83134,-3.44398 0.67359,-1.3987 0.99719,-2.94444 0.99719,-4.59385 0.0138,-2.62085 0.0836,-4.44432 0.43922,-6.03624 0.35501,-1.63276 1.03426,-3.03115 2.23881,-4.68371 3.52252,-4.62339 3.52252,-7.8132 2.42731,-11.18806 -0.68176,-2.0946 -1.67581,-3.89797 -3.6727,-5.35982 0.009,-0.006 0.0264,-0.0116 0.0264,-0.0116 1.74492,-0.67611 3.0544,-1.4562 3.77637,-2.01983 2.28845,0.44236 4.62025,0.38455 6.89424,-0.15017 3.45278,-0.84074 6.37397,-2.70724 7.85311,-5.02177 6.24138,0.0606 10.81513,-2.57717 13.99647,-7.75822 11.3065,-0.75685 15.93241,-6.87947 17.5881,-11.70771 16.78446,-4.146473 16.99244,-15.871772 16.87431,-17.455212 0.3324,-0.213953 0.86398,-0.566141 0.86398,-0.566141 7.46604,-5.018933 8.93951,-11.026264 8.93951,-15.077229 0,-1.219311 -0.13823,-2.392122 -0.27709,-3.155254 8.06737,-6.801561 6.42047,-14.909456 5.21529,-17.908563 0.009,-0.04337 0.0346,-0.05501 0.0346,-0.05501 l 0,0 M 129.00561,84.554653 c -3.25044,-0.329571 -10.13904,-1.681776 -15.45864,-7.345084 -1.21899,-1.300049 -2.66922,-2.637809 -4.00195,-3.655102 2.50837,0.225579 16.91201,1.525628 22.13924,1.982128 -0.76282,2.788294 -1.67329,5.842381 -2.67865,9.018058 l 0,0 m 57.45621,-7.345084 c -5.31897,5.663308 -12.22515,7.015513 -15.47874,7.345084 -0.99656,-3.181326 -1.90956,-6.241385 -2.65792,-9.018058 5.2153,-0.4565 19.61893,-1.756549 22.1273,-1.982128 -1.34341,1.017293 -2.77101,2.355053 -3.99064,3.655102 l 0,0 z" />
</g>
<g id="eagleFeathers">
 <path style="fill:#fcc700" d="m 217.6851,93.266078 -18.11655,0 0.0578,-0.115611 8.99732,-19.509286 9.06142,19.624897 0,0 z" />
 <path style="fill:#fcc700" d="m 224.53849,83.063583 c -2.69813,0.944721 -5.58225,1.413157 -8.44814,1.571814 l -2.88978,-6.148705 c 6.70323,-0.910163 13.05771,-2.31704 19.00692,-4.053797 -0.27773,1.993755 -1.57213,6.504039 -7.669,8.630688 l 0,0 z" />
 <path style="fill:#fcc700" d="m 226.30981,84.609319 c -0.97646,3.996299 -3.13483,6.70354 -6.43429,8.09345 l -2.85207,-6.088075 c 2.79112,-0.187875 5.5967,-0.690554 8.24958,-1.612343 0.35817,-0.118443 0.69307,-0.254168 1.03678,-0.393032 l 0,0 z" />
 <path style="fill:#fcc700" d="m 178.87136,126.19406 c 0,-0.28903 -0.0779,-0.5432 -0.28275,-0.74553 -0.19982,-0.20515 -0.43922,-0.29469 -0.7138,-0.29469 -0.11876,0 -0.22872,0.0145 -0.33805,0.0434 -0.14201,0.0522 -0.28653,0.13572 -0.39021,0.25133 l -9.89649,10.07275 c -0.70752,-0.74553 -1.46783,-1.44489 -2.274,-2.10654 l 8.85344,-11.82364 c 1.24853,-1.72796 3.09713,-2.95292 5.01296,-2.97335 2.06601,0.006 3.94729,0.90766 5.38056,2.84643 1.61171,2.23064 2.92684,3.88916 4.44368,5.19801 -3.19013,2.22781 -11.11864,7.76388 -18.36538,12.83465 -0.58374,-0.94472 -1.219,-1.84609 -1.91584,-2.69561 l 10.20313,-9.89053 c 0.20484,-0.19353 0.31166,-0.46246 0.28275,-0.71663 l 0,0 z" />
 <path style="fill:#fcc700" d="m 166.81649,117.11569 c -0.0949,-0.25449 -0.25385,-0.46247 -0.50267,-0.58406 -0.25386,-0.1241 -0.52279,-0.13258 -0.79738,-0.043 -0.25134,0.0634 -0.46811,0.24537 -0.58625,0.49388 l -6.26464,12.75705 c -1.01101,-0.399 -2.07731,-0.72826 -3.14048,-0.98808 2.5712,-8.46637 5.38872,-17.71221 6.52414,-21.42512 1.69591,1.03426 3.69281,1.76535 6.31051,2.61173 2.29096,0.77727 3.72423,2.26551 4.37205,4.24167 0.5806,1.83195 -0.0207,3.96142 -1.27492,5.68341 l -8.50596,12.08378 c -0.86146,-0.57211 -1.78262,-1.07762 -2.71886,-1.52281 l 6.52414,-12.51105 c 0.0892,-0.14452 0.10997,-0.30066 0.10997,-0.45964 0,-0.11561 -0.009,-0.22243 -0.0497,-0.33773 l 0,0 z" />
 <path style="fill:#fcc700" d="m 133.24131,117.91306 6.52477,12.51105 c -0.93938,0.44519 -1.84671,0.95069 -2.722,1.5228 l -8.50094,-12.08377 c -1.25669,-1.72199 -1.84608,-3.85146 -1.26549,-5.68342 0.63275,-1.97615 2.07167,-3.4644 4.35446,-4.24166 2.61519,-0.84639 4.62025,-1.57747 6.32747,-2.61174 1.13605,3.71292 3.93598,12.95876 6.51597,21.42512 -1.07761,0.25983 -2.12067,0.58908 -3.14048,0.98809 l -6.26778,-12.75705 c -0.10933,-0.24852 -0.33742,-0.43043 -0.5919,-0.49389 -0.26014,-0.0895 -0.54353,-0.0811 -0.79172,0.043 -0.25449,0.12159 -0.41346,0.32957 -0.49389,0.58405 -0.0496,0.1153 -0.0578,0.22212 -0.0578,0.33774 0,0.15897 0.0289,0.31512 0.10933,0.45964 l 0,0 z" />
 <path style="fill:#fcc700" d="m 121.4095,126.9107 10.20501,9.89053 c -0.70186,0.84952 -1.34027,1.75089 -1.91834,2.69561 -7.25241,-5.07078 -15.17525,-10.60684 -18.36538,-12.83465 1.51432,-1.30886 2.82882,-2.96738 4.44682,-5.19802 1.42761,-1.93877 3.30889,-2.84045 5.38055,-2.84642 1.91521,0.0204 3.75627,1.24539 5.00983,2.97335 l 8.85909,11.82364 c -0.80052,0.66165 -1.57213,1.361 -2.28279,2.10654 l -9.88142,-10.07275 c -0.1043,-0.11561 -0.24882,-0.19919 -0.40214,-0.25134 -0.10933,-0.0289 -0.21929,-0.0434 -0.32925,-0.0434 -0.27459,0 -0.53159,0.0895 -0.72198,0.29469 -0.19416,0.20233 -0.29218,0.4565 -0.29218,0.74553 -0.0113,0.25417 0.098,0.5231 0.29218,0.71663 l 0,0 z" />
 <path style="fill:#fcc700" d="m 197.40137,81.64477 c 1.91835,-1.251044 4.03337,-2.025482 6.24139,-2.241945 l -1.73676,3.678034 c -1.75686,-0.447698 -3.29129,-0.953517 -4.50463,-1.436089 l 0,0 z" />
 <path style="fill:#fcc700" d="m 201.05082,84.912811 -2.20487,4.649155 c -2.69877,-1.355036 -4.87725,-2.713212 -6.06169,-3.493305 0.10934,-0.135725 0.20799,-0.268934 0.31732,-0.410315 0.75716,-0.967968 1.58972,-1.855199 2.46753,-2.626497 1.34969,0.618297 3.23662,1.282773 5.48171,1.880962 l 0,0 z" />
 <path style="fill:#fcc700" d="m 191.13422,84.161621 c -4.0541,5.426417 -10.76298,9.012093 -17.14009,9.636354 -0.68176,-2.112506 -1.38426,-4.215902 -2.0547,-6.290394 3.72171,-0.404659 10.89933,-2.008207 16.78759,-8.286981 3.6639,-3.903614 8.4117,-7.17417 15.23934,-7.139612 1.04557,0.0058 2.10622,-0.01448 3.15179,-0.04903 l -2.36007,5.012962 c -4.62339,0.02606 -9.76643,1.964853 -13.62386,7.11668 l 0,0 z" />
 <path style="fill:#fcc700" d="m 177.40354,115.95701 c -0.40717,0.0634 -0.80051,0.16463 -1.20517,0.29155 -0.12944,0.0522 -0.2771,0.10117 -0.41597,0.15049 0.009,-0.15049 0.0176,-0.29186 0.0176,-0.43921 0,-0.87561 -0.13007,-1.7223 -0.39272,-2.52251 -0.0289,-0.0494 -0.0409,-0.0983 -0.0578,-0.14735 0.3814,-0.49419 0.77161,-1.09238 1.11532,-1.84922 0.42162,1.6381 0.73956,3.1609 0.93875,4.51625 l 0,0 z" />
 <path style="fill:#fcc700" d="m 174.57786,111.63711 c -1.02609,-1.66418 -2.61519,-2.99345 -4.59134,-3.80811 0.37261,-0.28307 2.6642,-2.20204 3.54514,-6.20368 0.87591,2.6642 1.68146,5.23854 2.34939,7.61653 -0.36381,0.97676 -0.84701,1.78262 -1.30319,2.39526 l 0,0 z" />
 <path style="fill:#fcc700" d="m 166.44388,98.935358 c 1.06317,-1.043372 2.96204,-3.449951 3.6526,-7.567518 0.0113,-0.01448 0.0201,-0.02323 0.0201,-0.03455 0.6183,1.852059 1.24539,3.712914 1.85803,5.576594 l 0.0345,0.106822 c 0.19354,0.578076 0.38707,1.17595 0.59253,1.768169 -0.12441,3.996297 -2.23063,6.605207 -3.08582,7.163177 -0.84135,-0.55201 -2.90108,-3.10624 -3.07199,-7.012686 l 0,0 z" />
 <path style="fill:#fcc700" d="m 168.45523,107.2858 c -1.90138,-0.62144 -3.37486,-1.19041 -4.62025,-1.87531 0.67296,-0.75716 1.35472,-1.80305 1.82598,-3.17253 0.71381,2.62933 2.01386,4.26178 2.79427,5.04784 l 0,0 z" />
 <path style="fill:#fcc700" d="m 169.5385,89.553171 c -0.20232,0.228404 -0.39271,0.395856 -0.54289,0.505818 -0.81497,-0.511474 -2.74212,-2.765046 -3.16437,-6.298881 0.26328,-0.219609 0.80618,-0.733915 1.38426,-1.548882 0.72511,2.369505 1.50803,4.83703 2.323,7.341945 l 0,0 z" />
 <path style="fill:#fcc700" d="m 168.6142,91.97765 0,0.0026 c -0.88157,3.201748 -2.55424,5.177905 -3.30009,5.660793 -0.80617,-0.517446 -2.70127,-2.794265 -3.19578,-6.460994 0.61264,-0.531588 2.07481,-2.031138 2.95324,-4.683713 1.12412,3.741817 3.40942,5.400345 3.54263,5.481398 l 0,0 z" />
 <path style="fill:#fcc700" d="m 161.43657,89.486878 c -0.77161,-0.502994 -2.52847,-2.638124 -2.98151,-5.943554 0.72762,-0.670447 2.18414,-2.302897 2.98151,-5.105642 0.79172,2.802745 2.24823,4.435195 2.97021,5.105642 -0.44173,3.30543 -2.21305,5.44056 -2.97021,5.943554 l 0,0 z" />
 <path style="fill:#fcc700" d="m 157.62815,81.983137 c -0.75967,-0.494199 -2.50774,-2.600734 -2.97586,-5.854015 0.73077,-0.670446 2.18163,-2.314517 2.97586,-5.097161 0.78921,2.782644 2.23064,4.426715 2.95324,5.097161 -0.45932,3.253281 -2.20488,5.359816 -2.95324,5.854015 l 0,0 z" />
 <path style="fill:#fcc700" d="m 156.78742,83.543324 c -0.44738,3.30543 -2.20424,5.44056 -2.98151,5.943554 -0.75151,-0.502994 -2.52848,-2.638124 -2.97021,-5.943554 0.72198,-0.670447 2.181,-2.302897 2.97021,-5.105642 0.79737,2.802745 2.25954,4.435195 2.98151,5.105642 l 0,0 z" />
 <path style="fill:#fcc700" d="m 150.00314,81.983137 c -0.75967,-0.494199 -2.50836,-2.600734 -2.96141,-5.854015 0.72197,-0.670446 2.16655,-2.314517 2.96141,-5.097161 0.78292,2.782644 2.24195,4.426715 2.96141,5.097161 -0.47063,3.253281 -2.19859,5.359816 -2.96141,5.854015 l 0,0 z" />
 <path style="fill:#fcc700" d="m 149.16241,83.543324 c -0.44801,3.30543 -2.21053,5.44056 -2.97649,5.943554 -0.76281,-0.502994 -2.52785,-2.638124 -2.97586,-5.943554 0.7226,-0.670447 2.17849,-2.302897 2.97586,-5.105642 0.79737,2.802745 2.26583,4.435195 2.97649,5.105642 l 0,0 z" />
 <path style="fill:#fcc700" d="m 142.37813,81.983137 c -0.75465,-0.494199 -2.49392,-2.600734 -2.9589,-5.854015 0.71946,-0.670446 2.17284,-2.314517 2.9589,-5.097161 0.78292,2.782644 2.24509,4.426715 2.96706,5.097161 -0.47377,3.253281 -2.20425,5.359816 -2.96706,5.854015 l 0,0 z" />
 <path style="fill:#fcc700" d="m 141.55436,83.543324 c -0.46497,3.30543 -2.22184,5.44056 -2.98214,5.943554 -0.77098,-0.502994 -2.53099,-2.638124 -2.98151,-5.943554 0.72197,-0.670447 2.18979,-2.302897 2.98151,-5.105642 0.78041,2.802745 2.25389,4.435195 2.98214,5.105642 l 0,0 z" />
 <path style="fill:#fcc700" d="m 137.8735,91.179965 c -0.49703,3.666729 -2.38396,5.943548 -3.19013,6.460994 -0.75151,-0.482887 -2.42417,-2.459045 -3.29946,-5.660793 l 0,-0.0026 c 0.14138,-0.08105 2.42983,-1.739581 3.54515,-5.481398 0.87528,2.652575 2.32866,4.152125 2.94444,4.683713 l 0,0 z" />
 <path style="fill:#fcc700" d="m 124.21759,116.39905 c -0.15017,-0.0494 -0.28024,-0.0983 -0.42162,-0.15049 -0.399,-0.12692 -0.79486,-0.22809 -1.19637,-0.29155 0.19353,-1.35535 0.52278,-2.87815 0.92493,-4.51625 0.35501,0.75684 0.75087,1.35503 1.12663,1.84922 -0.0257,0.049 -0.0402,0.098 -0.049,0.14735 -0.26579,0.80021 -0.39586,1.6469 -0.39586,2.52251 0,0.14735 0,0.28872 0.0113,0.43921 l 0,0 z" />
 <path style="fill:#fcc700" d="m 124.11643,109.24185 c 0.66479,-2.37799 1.48541,-4.95233 2.3494,-7.61653 0.88094,4.00164 3.18132,5.92061 3.54514,6.20368 -1.97616,0.81466 -3.56525,2.14393 -4.58821,3.80811 -0.45932,-0.61264 -0.93309,-1.4185 -1.30633,-2.39526 l 0,0 z" />
 <path style="fill:#fcc700" d="m 127.40772,98.784866 c 0.19353,-0.592218 0.38455,-1.190093 0.59253,-1.768169 l 0.0345,-0.106822 c 0.61264,-1.863679 1.23094,-3.718885 1.84358,-5.576594 0.0113,0.01132 0.0232,0.02008 0.0232,0.03455 0.68741,4.117566 2.59759,6.524146 3.64882,7.567517 -0.17028,3.906449 -2.22749,6.460679 -3.07137,7.012679 -0.85204,-0.55797 -2.95261,-3.16687 -3.07136,-7.16317 l 0,0 z" />
 <path style="fill:#fcc700" d="m 134.33652,102.23796 c 0.46812,1.36948 1.15302,2.41537 1.83478,3.17253 -1.26235,0.6849 -2.73017,1.25387 -4.63156,1.87531 0.78041,-0.78606 2.08298,-2.41851 2.79678,-5.04784 l 0,0 z" />
 <path style="fill:#fcc700" d="m 131.01067,90.058989 c -0.15897,-0.109962 -0.33805,-0.277414 -0.55735,-0.505818 0.82377,-2.504915 1.60355,-4.97244 2.32552,-7.341945 0.58123,0.814967 1.12412,1.329273 1.3874,1.548882 -0.42162,3.533835 -2.3494,5.787407 -3.15557,6.298881 l 0,0 z" />
 <path style="fill:#fcc700" d="m 111.26732,79.2206 c 5.8914,6.278774 13.06903,7.882322 16.79325,8.286981 -0.66165,2.074492 -1.36351,4.18983 -2.066,6.290394 -6.36518,-0.624261 -13.07406,-4.209937 -17.12251,-9.636354 -3.85743,-5.151828 -9.011777,-7.090602 -13.632029,-7.11668 l -2.369498,-5.012963 c 1.066303,0.03455 2.111876,0.05469 3.161218,0.04903 6.830159,-0.03455 11.577329,3.235998 15.235569,7.139612 l 0,0 z" />
 <path style="fill:#fcc700" d="m 102.59611,81.64477 c -1.21334,0.482572 -2.747769,0.988391 -4.504626,1.436089 l -1.736133,-3.678034 c 2.218705,0.216463 4.325559,0.990901 6.240759,2.241945 l 0,0 z" />
 <path style="fill:#fcc700" d="m 104.42209,83.031849 c 0.88723,0.771298 1.71665,1.658529 2.47633,2.626497 0.10682,0.141381 0.21678,0.27459 0.32674,0.410315 -1.19323,0.780093 -3.37486,2.138269 -6.07048,3.493305 l -2.196079,-4.649155 c 2.245089,-0.598189 4.120079,-1.262665 5.463489,-1.880962 l 0,0 z" />
 <path style="fill:#fcc700" d="m 103.04978,93.59848 -1.01981,-2.175659 c 3.01105,-1.522804 5.35982,-3.036812 6.49838,-3.81722 0.8954,0.971114 1.80839,1.866826 2.77354,2.678653 -2.33432,2.79144 -9.73124,10.589876 -19.292195,10.465456 -5.458466,-0.0722 -8.260902,-2.744937 -9.601796,-4.712614 2.111876,1.080761 5.241052,2.196081 8.960253,2.196081 6.001359,0 10.311828,-2.782644 11.531448,-3.793967 0.39272,-0.343707 0.27459,-0.586569 0.15018,-0.84073 l 0,0 z" />
 <path style="fill:#fcc700" d="m 112.89412,91.50953 c 1.02546,0.733914 2.11251,1.392425 3.22468,1.95605 -1.34906,2.536957 -6.52414,11.1821 -15.11492,12.62981 -5.151208,0.86681 -7.778329,-1.78011 -8.823901,-3.27967 10.690721,0.0261 18.373541,-8.390968 20.714141,-11.30619 l 0,0 z" />
 <path style="fill:#fcc700" d="m 117.92782,94.289034 c 1.20455,0.499848 2.46753,0.89288 3.78204,1.202028 -0.96201,2.895116 -3.76821,9.988868 -8.75479,12.875188 -4.64915,2.66702 -8.12832,0.78605 -9.84434,-0.6472 8.77238,-2.38962 13.61192,-10.994225 14.81709,-13.430016 l 0,0 z" />
 <path style="fill:#fcc700" d="m 114.03835,110.09703 c 5.85432,-3.35444 8.74661,-11.282946 9.65646,-14.20728 0.51147,0.07791 1.01415,0.147346 1.54887,0.213954 -1.57777,4.715436 -3.1122,9.306786 -4.19862,13.317226 -2.97021,2.43862 -6.36832,1.74806 -7.98317,1.19637 0.32611,-0.15615 0.6472,-0.32957 0.97646,-0.52027 l 0,0 z" />
 <path style="fill:#fcc700" d="m 137.75474,104.37026 c -1.08327,-0.83225 -2.31421,-2.4936 -2.63781,-4.825408 0.21364,-0.141374 2.36071,-1.800218 3.48419,-5.434897 1.18507,3.374856 3.22469,4.929394 3.35476,5.013278 l 0.22809,0.155832 c -0.61201,0.650024 -1.20455,1.412845 -1.80587,2.273995 -0.8665,1.18758 -1.69843,2.08894 -2.62336,2.8172 l 0,0 z" />
 <path style="fill:#fcc700" d="m 139.20245,91.234946 c 0.61264,-0.517137 2.29976,-2.198912 3.17568,-5.284728 0.88094,3.085816 2.56869,4.767591 3.18133,5.284728 -0.63589,3.325531 -2.41035,5.469772 -3.18133,5.975282 -0.76596,-0.50551 -2.54293,-2.649751 -3.17568,-5.975282 l 0,0 z" />
 <path style="fill:#fcc700" d="m 146.37946,93.46558 c 0.40779,1.060339 0.90167,1.930287 1.38424,2.617701 -0.82062,0.138865 -1.69591,0.398688 -2.57748,0.84387 -0.2394,0.121274 -0.47377,0.260139 -0.71067,0.41314 0.67045,-0.916128 1.39305,-2.18728 1.90391,-3.874711 l 0,0 z" />
 <path style="fill:#fcc700" d="m 147.03293,91.055861 c 0.72198,-0.673272 2.17535,-2.314518 2.97021,-5.105643 0.78292,2.791125 2.25075,4.432371 2.97335,5.105643 -0.66165,2.459044 -1.89825,4.166583 -2.673,4.862792 -0.10996,-0.01448 -0.19919,-0.01448 -0.30035,-0.01448 -0.0986,0 -0.20233,0 -0.30349,0.01448 -0.77162,-0.696209 -2.0258,-2.403748 -2.66672,-4.862792 l 0,0 z" />
 <path style="fill:#fcc700" d="m 153.62683,93.46558 c 0.50833,1.687431 1.23345,2.958583 1.89824,3.874711 -0.24568,-0.153001 -0.47377,-0.291866 -0.7138,-0.41314 -0.88158,-0.445182 -1.74493,-0.705005 -2.56618,-0.84387 0.4656,-0.687414 0.97394,-1.557362 1.38174,-2.617701 l 0,0 z" />
 <path style="fill:#fcc700" d="m 154.44997,91.234946 c 0.60133,-0.517137 2.29724,-2.198912 3.17818,-5.284728 0.86713,3.085816 2.56304,4.767591 3.16688,5.284728 -0.6384,3.325531 -2.40972,5.469772 -3.16688,5.975282 -0.77161,-0.50551 -2.55109,-2.649751 -3.17818,-5.975282 l 0,0 z" />
 <path style="fill:#fcc700" d="m 158.03595,99.123233 c 0.13573,-0.08388 2.16717,-1.638422 3.36041,-5.013278 1.12663,3.634679 3.2649,5.293523 3.48419,5.434897 -0.32297,2.331808 -1.55705,3.993158 -2.64095,4.825408 -0.92116,-0.72826 -1.75937,-1.62962 -2.62021,-2.8172 -0.59253,-0.86115 -1.19324,-1.623971 -1.79457,-2.273995 l 0.21113,-0.155832 0,0 z" />
 <path style="fill:#fcc700" d="m 174.76573,96.103704 c 0.52279,-0.06661 1.03427,-0.136041 1.53443,-0.213954 0.91551,2.924334 3.81659,10.85284 9.65898,14.20728 0.33805,0.1907 0.66165,0.36412 0.98525,0.52027 -1.61234,0.55169 -5.02176,1.24225 -7.99197,-1.19637 -1.08641,-4.01044 -2.60953,-8.60179 -4.18669,-13.317226 l 0,0 z" />
 <path style="fill:#fcc700" d="m 178.29077,95.491062 c 1.3233,-0.309148 2.5712,-0.70218 3.77638,-1.202028 1.21962,2.435791 6.04785,11.040396 14.81143,13.430016 -1.70784,1.43325 -5.17508,3.31422 -9.83868,0.6472 -4.9872,-2.88632 -7.79027,-9.980072 -8.74913,-12.875188 l 0,0 z" />
 <path style="fill:#fcc700" d="m 183.89062,93.46558 c 1.11217,-0.563625 2.18728,-1.222136 3.21274,-1.95605 2.33495,2.915222 10.02091,11.33227 20.71415,11.30619 -1.04306,1.49956 -3.67207,4.14648 -8.82704,3.27967 -8.58702,-1.44771 -13.76775,-10.092853 -15.09985,-12.62981 l 0,0 z" />
 <path style="fill:#fcc700" d="m 188.69246,90.284254 c 0.95949,-0.811827 1.89007,-1.707539 2.7685,-2.678653 1.15868,0.780408 3.49299,2.294416 6.50404,3.81722 l -1.02609,2.175659 c -0.11813,0.254161 -0.22244,0.497023 0.15897,0.84073 1.21397,1.011323 5.53073,3.793967 11.5258,3.793967 3.72485,0 6.85403,-1.11532 8.96025,-2.196081 -1.33209,1.967677 -4.14019,4.640364 -9.59551,4.712614 -9.56724,0.12442 -16.95222,-7.674016 -19.29596,-10.465456 l 0,0 z" />
 <path style="fill:#fcc700" d="m 207.25702,67.842148 0,1.369487 c 0,0 -31.57515,2.557065 -39.71792,3.268041 -0.34937,-1.476618 -0.63275,-2.854901 -0.83194,-4.094319 l 0,-0.0058 0,-0.02007 c -0.0345,-0.167453 -0.0578,-0.343707 -0.0924,-0.517131 l 40.64222,0 0,0 z" />
 <path style="fill:#fcc700" d="m 166.64936,80.33906 c -0.50268,0.852357 -1.055,1.412841 -1.41002,1.644077 -0.7603,-0.494199 -2.48826,-2.600734 -2.96204,-5.854015 0.57808,-0.552004 1.5891,-1.713503 2.29159,-3.594465 0.54038,2.366359 1.26235,5.004482 2.08047,7.804403 l 0,0 z" />
 <path style="fill:#fcc700" d="m 133.52469,54.472772 -0.009,0 c -0.35502,-0.01448 -1.07762,-0.01448 -1.45903,-0.01448 -0.68176,0 -3.81659,0.0666 -4.69816,1.950394 -0.62395,-0.924614 -1.12097,-1.909865 -1.46468,-2.950096 -0.3613,-1.10684 -0.56111,-2.259543 -0.56111,-3.340305 0.0201,-1.120975 0.23436,-1.929972 0.65034,-2.505223 0.41345,-0.537238 1.0663,-0.91865 2.00254,-1.173132 2.13513,-0.56331 5.19519,-0.831928 7.43462,-0.667301 l 0.0113,0.0088 0.0201,0 0.71946,0.0462 c 1.10087,0.04337 4.14648,1.785457 6.0045,4.677742 0,0 6.52415,-1.21334 10.93956,-5.518473 0,0 -8.21818,0.846702 -15.02571,-0.124413 -0.10933,-0.01448 -0.34936,-0.115611 -0.21615,-0.404337 0,0 0.0257,-0.07823 0.0949,-0.173424 0,-0.0088 0,-0.01448 0,-0.01448 0.54352,-0.820623 1.38425,-1.843572 3.92718,-2.638117 l 0.0145,0 c 1.21648,-0.384237 3.04811,-0.641544 5.28755,-0.731084 2.31421,-0.103991 5.03622,-0.0462 8.09627,0.17908 4.61145,0.332395 8.02967,-0.05469 10.46829,-0.621128 -0.70186,1.840747 -1.99061,4.030858 -4.33435,5.631581 l -0.0201,0 0,0.0058 -0.82628,0.572118 -0.88095,0.612634 0.42163,0.990907 0.37575,0.904507 c 0.75402,1.886933 1.28874,5.62561 1.88944,9.945509 l 0.0691,0.508644 c 0.36443,2.710072 0.80616,5.931927 1.3899,9.222906 0,0.0666 0.009,0.124414 0.0201,0.181904 -0.17028,3.045607 -1.67266,5.01894 -2.40971,5.524759 l -0.049,0 c -0.88723,-0.595365 -3.02236,-3.302599 -3.05692,-7.405721 l -0.19353,0 -1.06882,0 -0.19667,0 c -0.0352,4.103122 -2.17032,6.810356 -3.05441,7.405721 l -0.0402,0 c -0.90168,-0.595365 -3.03116,-3.302599 -3.07137,-7.405721 l -0.18788,0 -1.07824,0 -0.18788,0 c -0.0283,4.103122 -2.16969,6.810356 -3.05943,7.405721 l -0.049,0 c -0.87843,-0.595365 -3.02236,-3.302599 -3.0632,-7.405721 l -0.17908,0 -1.08327,0 -0.19354,0 c -0.032,4.103122 -2.16717,6.810356 -3.06319,7.405721 l -0.0289,0 c -0.72198,-0.488543 -2.14645,-2.349083 -2.39778,-5.230062 0.47942,-1.909865 1.10338,-4.1028 1.14359,-4.230045 0.7314,-2.455898 1.10401,-4.654804 1.11846,-4.750314 l 0,-0.0085 c 0.27459,-1.736448 -0.0145,-3.140802 -0.86963,-4.175063 -0.85267,-1.040547 -2.23378,-1.629941 -4.02206,-1.693403 l 0,0 z" />
 <path style="fill:#fcc700" d="m 137.72018,76.129122 c -0.47378,3.253281 -2.21053,5.359816 -2.96455,5.854015 -0.34936,-0.231236 -0.89288,-0.79172 -1.41002,-1.644077 0.83194,-2.799921 1.5426,-5.438044 2.08612,-7.804403 0.70187,1.880962 1.70786,3.042461 2.28845,3.594465 l 0,0 z" />
 <path style="fill:#fcc700" d="m 92.740464,67.842148 40.784226,0 c -0.20484,0.794545 -0.40465,1.612343 -0.55169,2.288446 l 0,0.01165 0,0.0088 c -0.15645,0.74805 -0.32359,1.522488 -0.51776,2.32866 -8.4915,-0.736739 -39.714776,-3.268041 -39.714776,-3.268041 l 0,-1.369487 0,0 z" />
 <path style="fill:#fcc700" d="m 91.368152,73.641181 9.014918,19.509286 0.0578,0.115611 -18.125347,0 9.052623,-19.624897 0,0 z" />
 <path style="fill:#fcc700" d="m 74.733244,85.002351 c 2.638439,0.921789 5.452811,1.424468 8.252731,1.612343 l -2.860872,6.088075 c -3.305109,-1.38991 -5.460976,-4.097151 -6.437431,-8.09345 0.334911,0.138864 0.687414,0.274589 1.045572,0.393032 l 0,0 z" />
 <path style="fill:#fcc700" d="m 67.784339,74.432895 c 5.963654,1.736757 12.311861,3.143634 19.003775,4.053797 l -2.872178,6.148705 C 81.035581,84.47674 78.157748,84.008304 75.455847,83.063583 69.364633,80.936934 68.058922,76.42665 67.784339,74.432895 l 0,0 z" />
 <path style="fill:#fcc700" d="m 17.471193,38.086692 c 16.923318,17.22681 45.811651,31.876449 72.417194,33.780343 L 87.77902,76.38329 C 52.502267,72.104235 27.768575,53.322893 20.039254,45.833604 17.234308,43.120392 16.910709,39.849526 17.471193,38.086692 l 0,0 z" />
 <path style="fill:#fcc700" d="m 20.802702,49.740048 c 7.353565,6.564676 23.285346,17.350909 44.759792,24.01392 0.08922,1.30602 0.621437,4.937875 3.701603,7.954579 C 55.197881,79.986242 35.986117,73.285848 25.509663,64.094675 18.993682,58.393668 19.727596,52.707428 20.802702,49.740048 l 0,0 z" />
 <path style="fill:#fcc700" d="m 26.182625,67.746637 c 12.095084,9.338518 31.627301,15.097337 45.182043,16.247531 0.456178,2.398093 1.35786,4.89452 3.036811,6.972153 C 62.147417,91.905078 45.689079,89.98107 33.830887,82.026176 26.222839,76.909222 25.812525,70.792245 26.182625,67.746637 l 0,0 z" />
 <path style="fill:#fcc700" d="m 47.344777,98.923731 c -6.24704,-2.377985 -10.630401,-6.593887 -11.263149,-12.742599 12.508538,6.799051 28.550281,7.885462 40.220605,6.680609 0.849526,0.681758 1.855515,1.285597 3.011049,1.756549 0.170277,0.488227 1.011007,2.623665 3.112209,4.588511 -4.612081,1.424469 -20.229058,5.383059 -35.080714,-0.28307 l 0,0 z" />
 <path style="fill:#fcc700" d="m 68.781525,111.3974 c -7.888287,-0.28905 -13.051432,-3.0255 -15.375067,-8.18864 15.49948,3.25045 29.267229,-1.80022 30.99205,-2.47632 1.384248,0.86397 3.100267,1.57181 5.238543,1.88975 0.09236,0.20799 0.754015,1.56302 2.170312,2.90675 -2.669851,1.54291 -11.823634,6.2816 -23.025838,5.86846 l 0,0 z" />
 <path style="fill:#fcc700" d="m 70.714328,113.85047 c 10.754184,-0.19353 19.992173,-5.05067 22.884457,-6.97215 1.681461,1.00849 3.99002,1.70753 7.032485,1.33775 0.33805,0.36412 0.85518,0.85518 1.53191,1.36383 -2.349397,2.274 -8.549943,7.50971 -17.270164,9.02937 -6.556189,1.13857 -11.035061,-0.44204 -14.178688,-4.7588 l 0,0 z" />
 <path style="fill:#fcc700" d="m 90.391066,124.27854 c -2.337456,-0.30066 -4.478241,-1.65852 -5.77892,-3.10623 10.205635,-1.38991 17.054014,-7.85059 19.428544,-10.43657 1.69654,0.84073 3.91524,1.36949 6.53042,0.76565 0.32612,0.34967 0.9507,0.72826 1.77132,1.0374 -2.37516,3.2737 -10.58705,13.16391 -21.951364,11.73975 l 0,0 z" />
 <path style="fill:#fcc700" d="m 99.681204,125.7404 c 8.006416,-2.79678 13.391996,-10.23706 14.935216,-12.61504 1.73048,0.24254 3.76758,0.12409 5.70918,-0.77727 -0.30286,1.3145 -0.53473,2.53664 -0.66165,3.66359 -2.29976,0.43638 -4.40912,1.83195 -5.95486,3.95577 -2.99346,4.11756 -4.6058,5.91747 -8.61906,7.22349 -0.0232,0.003 -0.0641,0.0145 -0.0842,0.0173 -2.31421,-0.13886 -4.10563,-0.82345 -5.324626,-1.46782 l 0,0 z" />
 <path style="fill:#fcc700" d="m 101.2238,143.99299 c -3.097758,-4.25612 -2.60325,-6.47231 -1.918352,-8.57602 0.672963,-2.10057 1.577162,-4.17506 6.590752,-5.80186 1.52815,-0.49985 2.77354,-1.08076 3.86874,-1.77979 2.9212,2.01102 11.41019,7.83048 19.11061,13.1064 -0.45367,0.89007 -0.86713,1.8175 -1.21335,2.77385 l -19.02388,-6.40884 c -0.56049,-0.1819 -1.18759,0.12127 -1.38426,0.6937 -0.17908,0.58059 0.13573,1.19323 0.7138,1.38393 l 19.15082,5.99257 c -0.2771,0.9708 -0.48257,1.95636 -0.64154,2.96172 -9.31842,-0.26579 -19.61579,-0.54321 -23.17037,-0.64154 -0.47063,-1.21052 -1.14359,-2.40972 -2.08297,-3.70412 l 0,0 z" />
 <path style="fill:#fcc700" d="m 107.1152,161.84941 c -1.67581,-1.21901 -2.66106,-3.04499 -2.69311,-5.4635 0,-2.74211 -0.0779,-4.86907 -0.53723,-6.81067 3.89199,0.0666 13.55725,0.24568 22.40189,0.41031 -0.049,0.63275 -0.0723,1.26298 -0.0723,1.90704 0,0.47126 0.0145,0.93059 0.0377,1.3987 l -14.06873,2.00507 c -0.26579,0.0402 -0.50268,0.19918 -0.66165,0.41345 -0.16212,0.22809 -0.24003,0.49074 -0.19102,0.77098 0.0289,0.27773 0.17908,0.49137 0.41031,0.66228 0.0842,0.0691 0.19353,0.11813 0.28338,0.15835 0.15898,0.049 0.31795,0.0641 0.48258,0.0289 l 13.90976,-2.34311 c 0.14137,1.03174 0.33805,2.05407 0.60384,3.05691 l -14.11774,4.3576 c -2.02517,0.65285 -4.23318,0.563 -5.78772,-0.55232 l 0,0 z" />
 <path style="fill:#fcc700" d="m 110.4844,175.0397 c -1.39305,-1.9705 -1.67329,-4.02206 -1.03426,-5.99822 0.6007,-1.82032 2.33432,-3.19013 4.36011,-3.86057 l 13.98202,-4.76477 c 0.37261,0.98274 0.81183,1.92714 1.30319,2.82882 l -12.62729,6.28161 c -0.15018,0.0697 -0.26014,0.17908 -0.35816,0.31229 -0.0691,0.081 -0.12127,0.18473 -0.15583,0.29784 -0.0723,0.25385 -0.0723,0.52278 0.0603,0.77098 0.13572,0.24882 0.34433,0.41031 0.61264,0.50896 0.25448,0.0949 0.54352,0.0691 0.78606,-0.0553 l 12.55755,-6.64227 c 0.59253,0.9243 1.25356,1.80838 1.96485,2.6466 -7.05636,5.33091 -14.77688,11.1645 -17.87715,13.50824 -0.77099,-1.84106 -1.94411,-3.61803 -3.57405,-5.83421 l 0,0 z" />
 <path style="fill:#fcc700" d="m 131.58875,195.00862 c -1.30005,0.0754 -2.65288,0.33805 -4.18103,0.83508 -4.99851,1.63245 -6.95457,0.46812 -8.74033,-0.82377 -1.78577,-1.30571 -3.48482,-2.79929 -3.48482,-8.05857 0,-1.618 -0.16777,-2.97335 -0.49137,-4.2357 2.81123,-2.16089 10.98291,-8.44312 18.37982,-14.13533 0.71381,0.71695 1.45338,1.38739 2.25075,2.02014 l -11.97632,16.11149 c -0.3613,0.48257 -0.25449,1.16998 0.2394,1.52249 0.48257,0.36444 1.17626,0.23437 1.52312,-0.22809 l 11.63827,-16.38042 c 0.82942,0.56362 1.70471,1.06945 2.60639,1.52877 -3.12918,8.78934 -6.57379,18.48916 -7.76388,21.84391 l 0,0 z" />
 <path style="fill:#fcc700" d="m 148.53532,190.41414 c 0,2.14141 -0.77162,4.20176 -2.31421,5.3397 -1.68774,1.21649 -3.72171,1.59538 -6.02209,0.87278 -2.61205,-0.86084 -4.65732,-1.43326 -6.65987,-1.59224 1.27994,-3.68401 4.42923,-12.81705 7.32152,-21.18477 1.01164,0.43293 2.06035,0.77726 3.1298,1.05751 l -2.42731,13.99898 c -0.049,0.26894 0.009,0.55169 0.17908,0.75716 0.16777,0.22809 0.39272,0.37827 0.67045,0.42162 0.28024,0.0553 0.53472,-0.0201 0.74836,-0.18159 0.10996,-0.0609 0.17908,-0.14201 0.23689,-0.23438 0.10116,-0.12692 0.17028,-0.28024 0.19919,-0.43355 l 2.06286,-13.96129 c 1.00851,0.19039 2.04591,0.31481 3.08896,0.36947 l -0.21363,14.7706 0,0 z" />
 <path style="fill:#fcc700" d="m 150.00314,106.9534 c -0.61264,0 -1.09521,0.49703 -1.09521,1.0949 l 0.21364,20.07888 c -1.02296,0.0377 -2.01952,0.1329 -3.01042,0.29752 -2.63216,-8.9458 -5.55398,-18.8159 -6.56499,-22.23411 1.01101,-0.82911 1.9416,-1.83761 2.89229,-3.12918 3.09776,-4.267748 5.34536,-4.47573 7.56469,-4.47573 2.20739,0 4.47007,0.207982 7.55275,4.47573 0.94818,1.29157 1.88128,2.30007 2.88978,3.12918 -1.0085,3.41821 -3.91525,13.28831 -6.56499,22.23411 -0.97645,-0.16462 -1.99061,-0.25982 -3.01042,-0.29752 l 0.2193,-20.07888 c 0,-0.59787 -0.48258,-1.0949 -1.08642,-1.0949 l 0,0 z" />
 <path style="fill:#fcc700" d="m 159.80978,196.62662 c -2.29975,0.7226 -4.34566,0.34371 -6.02146,-0.87278 -1.55454,-1.13794 -2.32615,-3.19829 -2.32615,-5.3397 l -0.21364,-14.7706 c 1.05437,-0.0547 2.08046,-0.17908 3.09148,-0.36947 l 2.06915,13.96129 c 0.0257,0.15331 0.0892,0.30663 0.17908,0.43355 0.081,0.0924 0.15017,0.17343 0.24568,0.23438 0.22809,0.16149 0.47691,0.23689 0.74522,0.18159 0.29469,-0.0434 0.50896,-0.19353 0.67611,-0.42162 0.1709,-0.20547 0.24003,-0.48822 0.19101,-0.75716 l -2.43045,-13.99898 c 1.07259,-0.28025 2.10685,-0.62458 3.12101,-1.05751 2.89229,8.36772 6.04157,17.50076 7.30706,21.18477 -1.98495,0.15898 -4.02206,0.7314 -6.6341,1.59224 l 0,0 z" />
 <path style="fill:#fcc700" d="m 184.81492,186.96136 c 0.009,5.25928 -1.69906,6.75286 -3.4842,8.05857 -1.7977,1.29189 -3.73364,2.45622 -8.74347,0.82377 -1.52312,-0.49703 -2.87783,-0.75968 -4.17852,-0.83508 -1.17878,-3.35475 -4.63721,-13.05457 -7.75822,-21.84391 0.90733,-0.45932 1.78325,-0.96515 2.61204,-1.52877 l 11.62132,16.38042 c 0.3525,0.46246 1.0374,0.59253 1.53442,0.22809 0.49137,-0.35251 0.58688,-1.03992 0.24255,-1.52249 l -11.98513,-16.11149 c 0.79172,-0.63275 1.54888,-1.30319 2.25954,-2.02014 7.39693,5.69221 15.55101,11.97444 18.38235,14.13533 -0.33491,1.26235 -0.49389,2.6177 -0.50268,4.2357 l 0,0 z" />
 <path style="fill:#fcc700" d="m 189.51308,175.0397 c -1.618,2.21618 -2.79112,3.99316 -3.56839,5.83422 -3.10593,-2.34374 -10.81514,-8.17734 -17.88281,-13.50824 0.71946,-0.83822 1.37295,-1.72231 1.97679,-2.64661 l 12.5544,6.64228 c 0.24569,0.12441 0.53473,0.15017 0.77413,0.0553 0.26328,-0.0986 0.48257,-0.26014 0.61578,-0.50897 0.13007,-0.24819 0.14452,-0.51713 0.0603,-0.77098 -0.0257,-0.1131 -0.0836,-0.21678 -0.15268,-0.29784 -0.0924,-0.13321 -0.21113,-0.24254 -0.35565,-0.31229 l -12.63232,-6.2816 c 0.49388,-0.90168 0.92744,-1.84609 1.3145,-2.82882 l 13.97008,4.76476 c 2.02266,0.67045 3.75376,2.04025 4.35446,3.86058 0.64468,1.97615 0.37575,4.02772 -1.02861,5.99822 l 0,0 z" />
 <path style="fill:#fcc700" d="m 195.56911,156.38591 c -0.0145,2.41851 -0.99971,4.24449 -2.68683,5.4635 -1.55139,1.11531 -3.77323,1.20516 -5.79337,0.55231 l -14.12025,-4.3576 c 0.28276,-1.00284 0.47377,-2.02517 0.62081,-3.05691 l 13.89845,2.34311 c 0.16713,0.0352 0.32611,0.0201 0.47628,-0.0289 0.10996,-0.0402 0.21112,-0.0892 0.30349,-0.15835 0.21993,-0.17091 0.35816,-0.38454 0.39901,-0.66227 0.049,-0.28025 -0.0409,-0.5429 -0.18788,-0.77099 -0.15017,-0.21426 -0.39021,-0.37324 -0.66479,-0.41345 L 173.7453,153.2913 c 0.0232,-0.46811 0.0352,-0.92744 0.0352,-1.3987 0,-0.64406 -0.0264,-1.27429 -0.0697,-1.90704 8.85343,-0.16462 18.5099,-0.3437 22.40189,-0.41031 -0.45618,1.9416 -0.54352,4.06856 -0.54352,6.81067 l 0,0 z" />
 <path style="fill:#fcc700" d="m 198.77368,143.99299 c -0.93875,1.2944 -1.60669,2.4936 -2.08297,3.70412 -3.55394,0.0983 -13.84315,0.37575 -23.17916,0.64154 -0.13886,-1.00536 -0.35815,-1.99092 -0.63274,-2.96172 l 19.16274,-5.99257 c 0.56363,-0.1907 0.88975,-0.80334 0.70187,-1.38393 -0.18474,-0.57243 -0.81182,-0.8756 -1.37797,-0.6937 l -19.03017,6.40884 c -0.35187,-0.95635 -0.75967,-1.88378 -1.21334,-2.77385 7.68848,-5.27592 16.18061,-11.09538 19.11374,-13.1064 1.09521,0.69903 2.34877,1.27994 3.87754,1.77979 5.01046,1.6268 5.89706,3.70129 6.58761,5.80186 0.67359,2.10371 1.17627,4.3199 -1.92715,8.57602 l 0,0 z" />
 <path style="fill:#fcc700" d="m 194.99165,127.20822 c -0.0232,-0.003 -0.0578,-0.0145 -0.0836,-0.0173 -4.00195,-1.30602 -5.62874,-3.10593 -8.62534,-7.22947 -1.54323,-2.11785 -3.64945,-3.51341 -5.94921,-3.9498 -0.13886,-1.12695 -0.3613,-2.34908 -0.65034,-3.66359 1.92463,0.90137 3.97619,1.01981 5.69536,0.77727 1.54008,2.37799 6.94011,9.81827 14.93522,12.61505 -1.21334,0.64436 -2.99597,1.32895 -5.32212,1.46782 l 0,0 z" />
 <path style="fill:#fcc700" d="m 209.61521,124.27854 c -11.37311,1.42416 -19.57306,-8.46605 -21.94821,-11.73975 0.81182,-0.30914 1.43325,-0.68773 1.77131,-1.0374 2.60324,0.60384 4.81943,0.0751 6.51534,-0.76565 2.37516,2.58598 9.22605,9.04666 19.43169,10.43657 -1.28874,1.44771 -3.45026,2.80557 -5.77013,3.10623 l 0,0 z" />
 <path style="fill:#fcc700" d="m 215.1051,118.60927 c -8.70892,-1.51966 -14.92706,-6.75537 -17.262,-9.02937 0.67925,-0.50865 1.18192,-0.99971 1.52312,-1.36383 3.04246,0.36978 5.34222,-0.32926 7.04442,-1.33775 2.87783,1.92148 12.11833,6.77862 22.87,6.97215 -3.1298,4.31676 -7.61998,5.89737 -14.17554,4.7588 l 0,0 z" />
 <path style="fill:#fcc700" d="m 231.20779,111.3974 c -11.19969,0.41314 -20.35913,-4.32555 -23.01453,-5.86846 1.42195,-1.34373 2.07481,-2.69876 2.16403,-2.90675 2.13576,-0.31794 3.86938,-1.02578 5.24169,-1.88975 1.72796,0.6761 15.49005,5.72677 30.99204,2.47632 -2.323,5.16314 -7.49557,7.89959 -15.38323,8.18864 l 0,0 z" />
 <path style="fill:#fcc700" d="m 252.66464,98.923731 c -14.86359,5.666129 -30.4925,1.707539 -35.08071,0.28307 2.08612,-1.964846 2.93313,-4.100284 3.10028,-4.588511 1.15615,-0.470952 2.14958,-1.074791 3.02235,-1.756549 11.65587,1.204853 27.7039,0.118442 40.22061,-6.680609 -0.64406,6.148712 -5.02743,10.364614 -11.26253,12.742599 l 0,0 z" />
 <path style="fill:#fcc700" d="m 266.1666,82.026176 c -11.84626,7.954894 -28.32219,9.878902 -40.57059,8.940145 1.6846,-2.077633 2.58063,-4.57406 3.04875,-6.972153 13.5428,-1.150194 33.0725,-6.909013 45.16759,-16.247531 0.37261,3.045608 -0.0346,9.162585 -7.64575,14.279539 l 0,0 z" />
 <path style="fill:#fcc700" d="m 274.49725,64.094675 c -10.49154,9.191173 -29.68885,15.891567 -43.77203,17.613872 3.08833,-3.016704 3.61175,-6.648559 3.71291,-7.954579 21.45937,-6.663011 37.40623,-17.449244 44.7598,-24.01392 1.06945,2.96738 1.81467,8.65362 -4.70068,14.354627 l 0,0 z" />
 <path style="fill:#fcc700" d="m 279.95823,45.833604 c -7.74126,7.489289 -32.45987,26.270631 -67.74291,30.549686 l -2.10623,-4.516255 c 26.60869,-1.903894 55.50582,-16.553533 72.40903,-33.780343 0.56928,1.762834 0.24254,5.0337 -2.55989,7.746912 l 0,0 z" />
</g>
<g id="taeguk">
 <path style="fill:#c60c30" d="m 150.00314,130.74771 c -7.34477,0 -13.79979,3.73899 -17.59377,9.41675 -3.24479,4.85996 -1.93028,11.41898 2.9388,14.65812 4.85085,3.23599 11.41583,1.92714 14.65497,-2.92999 3.24228,-4.86562 9.79533,-6.17478 14.65812,-2.93848 4.85462,3.24511 6.16599,9.80947 2.92685,14.66975 2.25074,-3.36041 3.55394,-7.39127 3.55394,-11.73127 0,-11.67912 -9.46545,-21.14488 -21.13891,-21.14488 l 0,0 z" />
 <path style="fill:#003478" d="m 164.66126,148.95411 c -4.86279,-3.2363 -11.41584,-1.92714 -14.65812,2.93848 -3.23914,4.85713 -9.80412,6.16598 -14.65497,2.92999 -4.86908,-3.23914 -6.18359,-9.79816 -2.9388,-14.65812 -2.23943,3.35444 -3.55393,7.38529 -3.55393,11.72813 0,11.67911 9.46859,21.14205 21.1477,21.14205 7.3366,0 13.80294,-3.73302 17.58497,-9.41078 3.23914,-4.86028 1.92777,-11.42464 -2.92685,-14.66975 l 0,0 z" />
</g>
<g id="police">
 <path style="fill:#fff" d="m 220.84883,167.97203 0,7.6602 c 0,1.38425 1.1216,2.51403 2.50837,2.51403 l 21.26898,0 0,-4.19297 -18.7493,0 0,-1.97365 18.4257,0 0,-10.00017 -23.45375,0 0,4.18669 18.41753,0 0,1.80587 -18.41753,0 0,0 z" />
 <path style="fill:#fff" d="m 244.30258,149.66478 0,-5.02459 -5.03622,0 0,15.91796 5.03622,0 0,-6.70637 4.18103,0 0,-4.187 -4.18103,0 0,0 z" />
 <path style="fill:#fff" d="m 77.975522,147.32732 -5.019249,0 0,4.01609 5.019249,0 0,2.67865 -5.019249,0 0,4.02206 5.019249,0 0,3.35476 5.021765,0 0,-16.75869 -5.021765,0 0,2.68713 0,0 z" />
 <path style="fill:#fff" d="m 71.612864,160.38158 c -6.455022,0 -10.884253,4.31424 -10.884253,9.63636 0,5.3196 4.429231,9.63635 10.884253,9.63635 6.446233,0 10.89054,-4.31675 10.89054,-9.63635 0,-5.32212 -4.444307,-9.63636 -10.89054,-9.63636 l 0,0 m 0,14.90694 c -3.582845,0 -5.694721,-2.35818 -5.694721,-5.27058 0,-2.91554 2.111876,-5.27625 5.694721,-5.27625 3.582845,0 5.697867,2.36071 5.697867,5.27625 0,2.9124 -2.115022,5.27058 -5.697867,5.27058 l 0,0 z" />
 <path style="fill:#fff" d="m 226.46878,154.40913 c 1.64753,2.61204 4.33435,4.72455 8.74913,6.18672 l 1.88128,-3.71606 c 0,0 -5.69221,-1.60354 -7.53014,-7.21501 l 6.35136,0 0,-4.0161 -6.86535,0 0,-2.68147 -5.19518,0 0,2.68147 -6.86219,0 0,4.0161 6.35071,0 c -1.83792,5.61147 -7.52133,7.21501 -7.52133,7.21501 l 1.86682,3.71606 c 4.42106,-1.46217 7.10788,-3.57468 8.77489,-6.18672 l 0,0 z" />
 <path style="fill:#fff" d="m 71.459548,146.94874 c 0,-1.04589 -0.840731,-1.88976 -1.877507,-1.88976 l -14.38416,0 0,4.19549 10.453837,0 c -0.485081,2.04873 -2.547953,6.96053 -11.488098,8.78965 l 1.158674,3.91524 c 13.057088,-2.3695 16.137254,-10.2779 16.137254,-15.01062 l 0,0 z" />
</g>
<g id="gyeongchal">
 <path style="fill:#fff" d="m 124.70017,207.7685 c -7.22601,0 -13.08034,5.8537 -13.08034,13.08034 0,7.23229 5.85433,13.09164 13.08034,13.09164 7.22663,0 13.08913,-5.85935 13.08913,-13.09164 0,-7.22664 -5.8625,-13.08034 -13.08913,-13.08034 l 0,0 m 0,20.93344 c -4.14585,0 -7.50688,-3.5131 -7.50688,-7.8531 0,-4.33687 3.36103,-7.85374 7.50688,-7.85374 4.14081,0 7.50122,3.51687 7.50122,7.85374 0,4.34 -3.36041,7.8531 -7.50122,7.8531 l 0,0 z" />
 <path style="fill:#fff" d="m 154.71325,233.41204 0,-4.8829 -8.3828,0 0,-20.241 -5.57911,0 0,25.1239 13.96191,0 0,0 z" />
 <path style="fill:#fff" d="m 158.89365,233.41204 5.58539,0 0,-25.1239 -5.58539,0 0,25.1239 0,0 z" />
 <path style="fill:#fff" d="m 193.08713,208.28814 0,25.1239 15.35496,0 0,-4.8829 -9.76643,0 0,-5.36861 9.07273,0 0,-4.89484 -9.07273,0 0,-5.09716 9.42209,0 0,-4.88039 -15.01062,0 0,0 z" />
 <path style="fill:#fff" d="m 91.899733,208.28814 0,25.1239 5.591045,0 0,-6.97216 3.129172,0 c 5.00732,0 9.08405,-4.06855 9.08405,-9.07901 0,-5.00731 -4.07673,-9.07273 -9.08405,-9.07273 l -8.720217,0 0,0 m 8.018356,13.25439 -2.427311,0 0,-8.374 2.427311,0 c 2.328661,0 4.194851,1.88693 4.194851,4.19234 0,2.31484 -1.86619,4.18166 -4.194851,4.18166 l 0,0 z" />
 <path style="fill:#fff" d="m 180.53837,212.9951 c 2.43046,0 4.41541,1.23094 5.6407,3.11222 l 3.94665,-3.31454 c -2.06287,-3.05692 -5.41197,-5.02428 -9.58735,-5.02428 -7.226,0 -13.08913,5.8537 -13.08913,13.08034 0,7.23229 5.86313,13.09164 13.08913,13.09164 4.17538,0 7.52448,-1.97615 9.58735,-5.03307 l -3.94665,-3.31454 c -1.22529,1.89322 -3.21024,3.10907 -5.6407,3.10907 -4.14584,0 -7.50625,-3.5131 -7.50625,-7.8531 0,-4.33687 3.36041,-7.85374 7.50625,-7.85374 l 0,0 z" />
</g>
</svg> 